<svg width="22" height="22" viewBox="0 0 22 22" fill="none" xmlns="http://www.w3.org/2000/svg">
<path d="M3.9899 2.12739C3.95987 2.20018 3.87977 2.44131 3.80969 2.6688C3.58442 3.41039 3.58943 4.69793 3.82471 5.30304C3.89479 5.47592 3.89479 5.48047 3.69455 5.6943C3.35915 6.05827 2.95867 6.67702 2.79348 7.09559C2.52816 7.75529 2.44306 8.2148 2.44306 9.04738C2.43805 12.7644 4.34032 14.7799 8.36011 15.3304L8.9408 15.4078L8.71553 15.6808C8.43019 16.0174 8.25999 16.3586 8.16488 16.7727C8.12483 16.9455 8.08979 17.0911 8.08478 17.0957C8.00468 17.1457 7.41899 17.305 7.09861 17.3596C6.593 17.4506 6.36773 17.4506 5.93222 17.3641C5.19133 17.2231 4.56058 16.8091 4.075 16.1448C3.70456 15.6353 3.43925 15.3714 3.03376 15.112C2.58823 14.8254 2.13269 14.6889 1.65212 14.6889C1.25665 14.6889 1.03138 14.7799 1.00134 14.9619C0.981319 15.0893 1.18656 15.2986 1.53197 15.5033C1.92244 15.7399 2.36296 16.1266 2.60325 16.4451C2.70838 16.5861 2.95367 16.9956 3.14389 17.355C3.53937 18.1012 3.83472 18.4333 4.4104 18.7882C5.13126 19.2204 6.1725 19.4115 7.2588 19.3023C7.56917 19.275 7.88454 19.2386 7.96464 19.2204L8.0998 19.1976V20.2941C8.0998 21.618 8.07977 21.6908 7.68931 21.8455C7.54914 21.9001 7.45403 21.9592 7.47906 21.982C7.54414 22.0366 15.809 21.9547 15.8691 21.9001C15.9041 21.8683 15.839 21.8228 15.6938 21.7636C15.5687 21.7136 15.4385 21.6271 15.4085 21.5725C15.3635 21.4952 15.3434 20.8673 15.3384 19.2568C15.3334 17.123 15.3284 17.032 15.2183 16.6817C15.0831 16.2313 14.8679 15.8309 14.6376 15.5852L14.4624 15.3987L15.023 15.3213C16.9754 15.0529 18.2569 14.5388 19.2631 13.6152C20.3744 12.5961 20.87 11.3768 20.9902 9.35676C21.0753 7.94182 20.6047 6.56783 19.7337 5.6943L19.5484 5.50777L19.6435 5.1347C19.7186 4.83897 19.7387 4.59784 19.7337 3.94269C19.7337 3.20565 19.7186 3.07826 19.5985 2.67335C19.5234 2.42767 19.4283 2.17289 19.3832 2.10919C19.3031 2 19.2931 2 18.7925 2.0182C18.3871 2.0364 18.1818 2.07279 17.7563 2.20473C17.1556 2.38672 16.4097 2.71429 15.7589 3.08281L15.3234 3.32849L14.7778 3.21475C13.6614 2.98727 13.1258 2.94177 11.6791 2.94632C10.2373 2.95087 9.78681 2.98727 8.67048 3.21475L8.0998 3.33304L7.61422 3.06006C6.98347 2.69609 6.23758 2.36852 5.64688 2.18653C5.26142 2.07279 5.06118 2.0364 4.61064 2.0182L4.04497 2L3.9899 2.12739Z" fill="white"/>
</svg>
