<svg width="23" height="23" viewBox="0 0 23 23" fill="none" xmlns="http://www.w3.org/2000/svg">
<g clip-path="url(#clip0_163_280)">
<path d="M2.50189 0.879614C1.75387 1.15275 1.12328 1.79005 0.871037 2.53574C0.784058 2.8002 0.766663 2.92593 0.766663 3.39415C0.766663 4.29592 0.944969 4.75114 1.52773 5.33642C1.91478 5.7266 2.38447 5.99973 2.84111 6.09078C3.25426 6.17749 4.03272 6.12546 4.38499 5.99106C4.77204 5.84366 5.12866 5.59654 5.42873 5.27572C5.93321 4.72946 6.13761 4.1832 6.13326 3.40282C6.13326 2.97795 6.11587 2.85223 6.01149 2.55742C5.81144 1.97647 5.46352 1.52126 4.95035 1.17442C4.47196 0.849267 4.24582 0.784235 3.48475 0.771229C2.86285 0.758223 2.81502 0.766894 2.50189 0.879614Z" fill="white"/>
<path d="M16.0192 7.71111C15.2918 7.85234 14.7514 8.05589 14.2277 8.37989C13.8369 8.62498 13.2218 9.20653 12.9599 9.58039L12.7562 9.86701L12.7479 8.93652L12.7354 8.00604H10.5948H8.4541L8.44163 15.1176L8.43332 22.2333H10.6779H12.9183L12.9349 18.2123C12.9474 13.78 12.9433 13.8673 13.2176 13.1196C13.4421 12.5089 13.7704 12.1185 14.2692 11.8734C14.9925 11.5203 15.9818 11.512 16.626 11.8526C17.2786 12.2015 17.6195 12.8828 17.7442 14.0874C17.7691 14.3491 17.7857 15.9982 17.7857 18.3743V22.2333H20.0095H22.2333V17.61C22.2333 12.5962 22.225 12.4217 22.0005 11.3915C21.614 9.64685 20.7078 8.50451 19.3112 8.00604C18.6046 7.75265 18.2055 7.69034 17.2038 7.66957C16.5637 7.66126 16.227 7.66957 16.0192 7.71111Z" fill="white"/>
<path d="M0.766663 14.95V22.2333H3.06666H5.36666V14.95V7.66667H3.06666H0.766663V14.95Z" fill="white"/>
</g>
<defs>
<clipPath id="clip0_163_280">
<rect width="23" height="23" fill="white"/>
</clipPath>
</defs>
</svg>
