<svg width="25" height="22" viewBox="0 0 25 22" fill="none" xmlns="http://www.w3.org/2000/svg">
<path d="M8.12459 1.89239C5.91145 2.35005 3.93375 4.03616 2.87165 6.37865C1.79909 8.73318 0.742227 14.3696 1.05615 16.0678C1.15556 16.6157 1.41716 17.242 1.74677 17.7117C2.55773 18.8739 4.5459 19.8434 6.3614 19.9639L6.92646 20L7.36595 19.3737C7.60662 19.0305 7.89961 18.615 8.01472 18.4584C8.26062 18.1152 8.24493 18.0851 7.73219 17.8803C6.87937 17.5371 5.93238 16.8807 5.35163 16.2303L4.98539 15.8209L5.40395 16.0557C6.24107 16.5314 7.97286 17.2119 9.27563 17.5792C12.959 18.621 16.2708 18.1393 19.3734 16.1099L19.8966 15.7667L19.5565 16.134C18.9235 16.8024 17.9765 17.4347 17.0713 17.79C16.7731 17.9044 16.6266 17.9947 16.6266 18.055C16.6266 18.1031 16.8934 18.5247 17.2178 18.9883L17.809 19.8314L18.4107 19.8193C20.1059 19.7892 22.1673 18.8438 23.1091 17.6515C23.4962 17.1697 23.8049 16.4893 23.9305 15.8449C23.9985 15.4836 24.0142 15.2307 23.988 14.6888C23.8782 12.3162 22.9783 8.31165 22.1307 6.41478C21.6441 5.31881 20.7494 4.12649 19.8809 3.40387C18.7979 2.50662 17.4376 1.93454 16.1296 1.82013L15.6587 1.784L15.507 1.96465C15.4285 2.06702 15.3709 2.17542 15.3918 2.20553C15.4075 2.23564 15.6273 2.33801 15.8784 2.42833C16.9667 2.81373 18.3165 3.51828 19.2478 4.18068C19.5042 4.36134 19.7135 4.52393 19.7135 4.53597C19.7135 4.54801 19.5094 4.45166 19.2583 4.33123C15.1041 2.25972 9.99765 2.17542 5.75972 4.10842C5.36209 4.28907 5.03247 4.42758 5.02201 4.41553C4.98539 4.3794 5.89575 3.75313 6.46604 3.42796C7.37118 2.91008 8.62163 2.38016 9.39597 2.18746C9.57386 2.14531 9.62094 2.00681 9.50061 1.8683C9.4169 1.77196 8.65302 1.784 8.12459 1.89239ZM9.59478 10.0399C10.2331 10.3832 10.6464 11.0154 10.772 11.8344C10.9185 12.7919 10.4214 13.8216 9.60002 14.2672C9.15006 14.5081 8.85707 14.5442 8.43328 14.4118C7.32409 14.0685 6.6544 12.7437 6.97355 11.5153C7.09388 11.0335 7.4235 10.5036 7.75312 10.2567C8.38096 9.77495 8.97218 9.70269 9.59478 10.0399ZM16.5272 9.91948C17.2126 10.1664 17.7201 10.7746 17.9084 11.5755C18.0759 12.28 17.9398 13.0267 17.5317 13.641C17.1969 14.1468 16.3702 14.5623 15.8575 14.478C15.5122 14.4238 15.0047 14.1408 14.7222 13.8397C14.4449 13.5446 14.199 13.0207 14.11 12.5269C13.9478 11.6056 14.4239 10.5337 15.2087 10.076C15.7058 9.787 16.0406 9.75086 16.5272 9.91948Z" fill="white"/>
</svg>
