<svg width="23" height="23" viewBox="0 0 23 23" fill="none" xmlns="http://www.w3.org/2000/svg">
<g clip-path="url(#clip0_163_269)">
<path d="M20.9336 0.797232C20.7785 0.862459 17.1518 2.51825 14.7703 3.61208C13.328 4.27439 9.81872 5.88001 6.97187 7.18457C4.12502 8.48412 1.64294 9.63815 1.45427 9.74352C1.23205 9.87398 1.06015 10.0145 0.942756 10.165C0.779241 10.3808 0.766663 10.4109 0.766663 10.6918C0.766663 10.9829 0.770855 10.9929 0.96372 11.1936C1.18593 11.4294 1.0895 11.3893 4.4227 12.6286L6.42263 13.3712L11.8019 9.34212C14.7619 7.12436 17.3656 5.17755 17.592 5.01197C17.9358 4.75608 18.0322 4.7059 18.1999 4.7059C18.3677 4.70089 18.397 4.71594 18.4096 4.80625C18.418 4.88653 17.4536 5.95527 13.785 9.88903C11.2359 12.6286 9.15208 14.8765 9.15208 14.8815C9.15208 14.8815 9.07661 16.1409 8.98437 17.6713C8.89213 19.2016 8.81666 20.5664 8.81666 20.7019V20.9477L9.03049 20.9126C9.15208 20.8925 9.3156 20.8323 9.40364 20.7821C9.4875 20.732 10.1458 20.0144 10.8669 19.1916C11.588 18.3687 12.1918 17.6913 12.2044 17.6863C12.2211 17.6763 13.328 18.6346 14.6655 19.8087C16.003 20.9828 17.1979 22.0064 17.3237 22.0716C17.592 22.2272 18.0364 22.2774 18.2628 22.1921C18.4892 22.1017 18.7702 21.6953 18.875 21.319C18.9211 21.1484 19.6967 16.8785 20.5982 11.8308C22.1704 3.00997 22.2333 2.62864 22.2333 2.12186C22.2333 1.71042 22.2124 1.54485 22.1537 1.3893C22.0614 1.15348 21.8434 0.892565 21.6757 0.817301C21.5541 0.762108 21.0468 0.747055 20.9336 0.797232Z" fill="white"/>
</g>
<defs>
<clipPath id="clip0_163_269">
<rect width="23" height="23" fill="white"/>
</clipPath>
</defs>
</svg>
